<?xml version="1.0" encoding="UTF-8"?>
<!DOCTYPE svg PUBLIC "-//W3C//DTD SVG 1.1//EN" "http://www.w3.org/Graphics/SVG/1.1/DTD/svg11.dtd">
<svg xmlns="http://www.w3.org/2000/svg" version="1.1" width="940px" height="492px" style="shape-rendering:geometricPrecision; text-rendering:geometricPrecision; image-rendering:optimizeQuality; fill-rule:evenodd; clip-rule:evenodd" xmlns:xlink="http://www.w3.org/1999/xlink">
<g><path style="opacity:1" fill="#000000" d="M -0.5,-0.5 C 312.833,-0.5 626.167,-0.5 939.5,-0.5C 939.5,163.5 939.5,327.5 939.5,491.5C 626.167,491.5 312.833,491.5 -0.5,491.5C -0.5,327.5 -0.5,163.5 -0.5,-0.5 Z"/></g>
<g><path style="opacity:1" fill="#fcfcfc" d="M 515.5,99.5 C 527.257,99.1153 538.924,99.9487 550.5,102C 570.354,106.686 581.021,119.186 582.5,139.5C 569.842,140.111 557.176,140.444 544.5,140.5C 543.136,132.305 538.469,127.138 530.5,125C 522.737,122.905 516.237,124.739 511,130.5C 509.649,136.844 512.149,141.011 518.5,143C 532.466,145.575 546.132,149.241 559.5,154C 587.662,167.516 594.162,188.016 579,215.5C 570.637,225.934 559.804,232.1 546.5,234C 528.456,237.014 510.789,235.68 493.5,230C 477.676,221.196 469.343,207.696 468.5,189.5C 481.155,188.445 493.821,187.945 506.5,188C 508.903,204.204 518.236,211.204 534.5,209C 542.415,207.919 546.748,203.419 547.5,195.5C 547.109,192.219 545.776,189.385 543.5,187C 537.736,184.078 531.736,181.745 525.5,180C 508.724,177.748 493.89,171.248 481,160.5C 466.792,136.963 471.626,118.463 495.5,105C 502.118,102.515 508.785,100.682 515.5,99.5 Z"/></g>
<g><path style="opacity:1" fill="#fdfdfd" d="M 74.5,102.5 C 102.502,102.333 130.502,102.5 158.5,103C 182.821,106.116 193.987,119.949 192,144.5C 188.404,161.263 178.237,171.597 161.5,175.5C 168.881,177.772 174.715,182.105 179,188.5C 187.051,202.603 194.551,216.936 201.5,231.5C 186.676,232.496 171.676,232.829 156.5,232.5C 147.933,216.366 139.099,200.366 130,184.5C 125.41,181.137 120.243,179.47 114.5,179.5C 114.5,197.167 114.5,214.833 114.5,232.5C 101.167,232.5 87.8333,232.5 74.5,232.5C 74.5,189.167 74.5,145.833 74.5,102.5 Z"/></g>
<g><path style="opacity:1" fill="#919191" d="M 74.5,102.5 C 74.5,145.833 74.5,189.167 74.5,232.5C 87.8333,232.5 101.167,232.5 114.5,232.5C 101.01,233.496 87.3435,233.829 73.5,233.5C 73.168,189.663 73.5013,145.997 74.5,102.5 Z"/></g>
<g><path style="opacity:1" fill="#040404" d="M 114.5,128.5 C 125.304,127.933 135.971,128.766 146.5,131C 151.912,136.552 152.746,142.719 149,149.5C 145.043,152.565 140.543,154.398 135.5,155C 128.508,155.5 121.508,155.666 114.5,155.5C 114.5,146.5 114.5,137.5 114.5,128.5 Z"/></g>
<g><path style="opacity:1" fill="#a6a6a6" d="M 201.5,231.5 C 202.043,231.56 202.376,231.893 202.5,232.5C 187.005,233.826 171.672,233.826 156.5,232.5C 171.676,232.829 186.676,232.496 201.5,231.5 Z"/></g>
<g><path style="opacity:1" fill="#fbfbfb" d="M 110.5,255.5 C 128.727,253.308 146.06,256.142 162.5,264C 173.192,271.721 178.526,282.055 178.5,295C 165.827,295.438 153.16,295.938 140.5,296.5C 140.095,288.59 136.095,283.424 128.5,281C 123.5,280.333 118.5,280.333 113.5,281C 108.268,283.633 106.435,287.799 108,293.5C 109.543,295.378 111.376,296.878 113.5,298C 128.054,301.222 142.387,305.222 156.5,310C 180.801,320.562 188.634,338.396 180,363.5C 175.107,374.059 167.274,381.559 156.5,386C 134.505,393.282 112.505,393.282 90.5,386C 74.9256,377.556 66.259,364.389 64.5,346.5C 77.3869,344.382 90.3869,343.382 103.5,343.5C 107.13,363.154 118.463,369.654 137.5,363C 147.589,353.871 146.589,346.204 134.5,340C 124.003,336.39 113.336,333.39 102.5,331C 89.1559,327.101 78.9893,319.268 72,307.5C 66.1385,285.388 73.6385,269.555 94.5,260C 99.8629,258.163 105.196,256.663 110.5,255.5 Z"/></g>
<g><path style="opacity:1" fill="#fcfcfc" d="M 265.5,255.5 C 282.663,253.805 298.996,256.638 314.5,264C 325.698,271.886 333.365,282.386 337.5,295.5C 325.897,298.7 314.23,301.7 302.5,304.5C 296.03,288.267 284.364,282.767 267.5,288C 261,291.815 256.5,297.315 254,304.5C 251.788,318.23 252.121,331.896 255,345.5C 257.277,353.444 262.444,358.278 270.5,360C 289.57,362.646 300.237,354.479 302.5,335.5C 314.448,339.039 326.448,342.372 338.5,345.5C 334.765,368.398 321.765,382.898 299.5,389C 278.252,394.105 257.918,391.772 238.5,382C 219.401,366.915 210.401,347.082 211.5,322.5C 211.265,285.101 229.265,262.767 265.5,255.5 Z"/></g>
<g><path style="opacity:1" fill="#fcfcfc" d="M 769.5,292.5 C 769.56,293.043 769.893,293.376 770.5,293.5C 771.499,281.852 771.832,270.186 771.5,258.5C 784.833,258.5 798.167,258.5 811.5,258.5C 811.5,291.167 811.5,323.833 811.5,356.5C 832.5,356.5 853.5,356.5 874.5,356.5C 874.5,367.167 874.5,377.833 874.5,388.5C 840.167,388.5 805.833,388.5 771.5,388.5C 771.832,376.814 771.499,365.148 770.5,353.5C 769.893,353.624 769.56,353.957 769.5,354.5C 761.08,375.065 745.747,386.898 723.5,390C 700.545,394.537 679.545,390.204 660.5,377C 655.494,372.474 651.327,367.307 648,361.5C 636.442,380.201 619.608,390.034 597.5,391C 574.941,393.908 555.108,388.074 538,373.5C 520.42,350.705 515.754,325.371 524,297.5C 532.818,273.353 549.984,259.52 575.5,256C 591.688,253.993 607.354,255.993 622.5,262C 633.18,267.012 641.68,274.512 648,284.5C 662.014,264.493 681.347,254.826 706,255.5C 732.309,253.906 752.642,263.906 767,285.5C 768.411,287.65 769.245,289.984 769.5,292.5 Z"/></g>
<g><path style="opacity:1" fill="#fdfdfd" d="M 454.5,303.5 C 455.496,288.676 455.829,273.676 455.5,258.5C 468.833,258.5 482.167,258.5 495.5,258.5C 495.5,301.833 495.5,345.167 495.5,388.5C 482.167,388.5 468.833,388.5 455.5,388.5C 455.83,370.992 455.497,353.659 454.5,336.5C 440.01,335.504 425.343,335.171 410.5,335.5C 410.5,353.5 410.5,371.5 410.5,389.5C 397.167,389.5 383.833,389.5 370.5,389.5C 370.5,345.5 370.5,301.5 370.5,257.5C 383.833,257.5 397.167,257.5 410.5,257.5C 410.5,272.833 410.5,288.167 410.5,303.5C 425.167,303.5 439.833,303.5 454.5,303.5 Z"/></g>
<g><path style="opacity:1" fill="#a1a1a1" d="M 495.5,258.5 C 482.167,258.5 468.833,258.5 455.5,258.5C 455.829,273.676 455.496,288.676 454.5,303.5C 454.5,288.167 454.5,272.833 454.5,257.5C 468.344,257.171 482.01,257.504 495.5,258.5 Z"/></g>
<g><path style="opacity:1" fill="#9e9e9e" d="M 811.5,258.5 C 798.167,258.5 784.833,258.5 771.5,258.5C 771.832,270.186 771.499,281.852 770.5,293.5C 769.893,293.376 769.56,293.043 769.5,292.5C 770.495,281.012 770.828,269.345 770.5,257.5C 784.344,257.171 798.01,257.504 811.5,258.5 Z"/></g>
<g><path style="opacity:1" fill="#010101" d="M 580.5,286.5 C 598.503,283.906 610.003,291.239 615,308.5C 615.667,318.167 615.667,327.833 615,337.5C 611.139,355.674 599.972,363.174 581.5,360C 571.155,356.986 564.989,350.153 563,339.5C 561.028,328.161 561.028,316.828 563,305.5C 565.955,296.383 571.789,290.05 580.5,286.5 Z"/></g>
<g><path style="opacity:1" fill="#020202" d="M 700.5,286.5 C 717.035,284.174 727.869,290.84 733,306.5C 735.362,319.987 734.695,333.32 731,346.5C 727.686,353.149 722.519,357.649 715.5,360C 696.554,363.624 685.054,356.124 681,337.5C 678.493,325.296 679.159,313.296 683,301.5C 686.92,294.066 692.754,289.066 700.5,286.5 Z"/></g>
<g><path style="opacity:1" fill="#888888" d="M 454.5,336.5 C 455.497,353.659 455.83,370.992 455.5,388.5C 468.833,388.5 482.167,388.5 495.5,388.5C 482.01,389.496 468.344,389.829 454.5,389.5C 454.5,371.833 454.5,354.167 454.5,336.5 Z"/></g>
<g><path style="opacity:1" fill="#828282" d="M 769.5,354.5 C 769.56,353.957 769.893,353.624 770.5,353.5C 771.499,365.148 771.832,376.814 771.5,388.5C 805.833,388.5 840.167,388.5 874.5,388.5C 840.004,389.498 805.337,389.832 770.5,389.5C 770.828,377.655 770.495,365.988 769.5,354.5 Z"/></g>
</svg>
